<mxfile host="app.diagrams.net" modified="2023-11-18T03:48:36.995Z" agent="Mozilla/5.0 (Windows NT 10.0; Win64; x64) AppleWebKit/537.36 (KHTML, like Gecko) Chrome/119.0.0.0 Safari/537.36" etag="vaNbOMsIOO0yfkFUZ0ot" version="22.1.3" type="github">
  <diagram id="C5RBs43oDa-KdzZeNtuy" name="Page-1">
    <mxGraphModel dx="1621" dy="492" grid="1" gridSize="10" guides="1" tooltips="1" connect="1" arrows="1" fold="1" page="1" pageScale="1" pageWidth="827" pageHeight="1169" math="0" shadow="0">
      <root>
        <mxCell id="WIyWlLk6GJQsqaUBKTNV-0" />
        <mxCell id="WIyWlLk6GJQsqaUBKTNV-1" parent="WIyWlLk6GJQsqaUBKTNV-0" />
        <mxCell id="bcFZ77ztxnrligwMbe6c-0" value="User" style="rounded=0;whiteSpace=wrap;html=1;" parent="WIyWlLk6GJQsqaUBKTNV-1" vertex="1">
          <mxGeometry x="160" y="730" width="120" height="60" as="geometry" />
        </mxCell>
        <mxCell id="bcFZ77ztxnrligwMbe6c-27" style="edgeStyle=orthogonalEdgeStyle;rounded=0;orthogonalLoop=1;jettySize=auto;html=1;exitX=1;exitY=0.25;exitDx=0;exitDy=0;entryX=0;entryY=0.5;entryDx=0;entryDy=0;endArrow=none;endFill=0;" parent="WIyWlLk6GJQsqaUBKTNV-1" source="KNO62eB51g_FiUWbQfuq-1" target="bcFZ77ztxnrligwMbe6c-26" edge="1">
          <mxGeometry relative="1" as="geometry" />
        </mxCell>
        <mxCell id="bcFZ77ztxnrligwMbe6c-55" style="edgeStyle=orthogonalEdgeStyle;rounded=0;orthogonalLoop=1;jettySize=auto;html=1;exitX=0.75;exitY=1;exitDx=0;exitDy=0;entryX=0;entryY=0.5;entryDx=0;entryDy=0;endArrow=none;endFill=0;" parent="WIyWlLk6GJQsqaUBKTNV-1" source="KNO62eB51g_FiUWbQfuq-1" target="bcFZ77ztxnrligwMbe6c-54" edge="1">
          <mxGeometry relative="1" as="geometry" />
        </mxCell>
        <mxCell id="o89qxLCXQaTwuf5vdtjf-5" style="edgeStyle=orthogonalEdgeStyle;rounded=0;orthogonalLoop=1;jettySize=auto;html=1;exitX=0.5;exitY=1;exitDx=0;exitDy=0;entryX=0;entryY=0.5;entryDx=0;entryDy=0;endArrow=none;endFill=0;" edge="1" parent="WIyWlLk6GJQsqaUBKTNV-1" source="KNO62eB51g_FiUWbQfuq-1" target="o89qxLCXQaTwuf5vdtjf-1">
          <mxGeometry relative="1" as="geometry" />
        </mxCell>
        <mxCell id="KNO62eB51g_FiUWbQfuq-1" value="Question" style="rounded=0;whiteSpace=wrap;html=1;" parent="WIyWlLk6GJQsqaUBKTNV-1" vertex="1">
          <mxGeometry x="1062" y="730" width="120" height="60" as="geometry" />
        </mxCell>
        <mxCell id="bcFZ77ztxnrligwMbe6c-6" style="edgeStyle=orthogonalEdgeStyle;rounded=0;orthogonalLoop=1;jettySize=auto;html=1;exitX=0.5;exitY=1;exitDx=0;exitDy=0;entryX=0;entryY=0;entryDx=0;entryDy=0;endArrow=none;endFill=0;" parent="WIyWlLk6GJQsqaUBKTNV-1" source="bcFZ77ztxnrligwMbe6c-1" target="bcFZ77ztxnrligwMbe6c-0" edge="1">
          <mxGeometry relative="1" as="geometry">
            <Array as="points">
              <mxPoint x="-15" y="640" />
              <mxPoint x="160" y="640" />
            </Array>
          </mxGeometry>
        </mxCell>
        <mxCell id="bcFZ77ztxnrligwMbe6c-1" value="&lt;u&gt;id&lt;/u&gt;" style="ellipse;whiteSpace=wrap;html=1;" parent="WIyWlLk6GJQsqaUBKTNV-1" vertex="1">
          <mxGeometry x="-80" y="530" width="130" height="60" as="geometry" />
        </mxCell>
        <mxCell id="KNO62eB51g_FiUWbQfuq-2" value="Form" style="rounded=0;whiteSpace=wrap;html=1;" parent="WIyWlLk6GJQsqaUBKTNV-1" vertex="1">
          <mxGeometry x="738" y="680" width="120" height="60" as="geometry" />
        </mxCell>
        <mxCell id="bcFZ77ztxnrligwMbe6c-9" style="edgeStyle=orthogonalEdgeStyle;rounded=0;orthogonalLoop=1;jettySize=auto;html=1;exitX=1;exitY=0;exitDx=0;exitDy=0;entryX=0.25;entryY=1;entryDx=0;entryDy=0;endArrow=none;endFill=0;" parent="WIyWlLk6GJQsqaUBKTNV-1" source="bcFZ77ztxnrligwMbe6c-2" target="bcFZ77ztxnrligwMbe6c-0" edge="1">
          <mxGeometry relative="1" as="geometry" />
        </mxCell>
        <mxCell id="bcFZ77ztxnrligwMbe6c-2" value="password" style="ellipse;whiteSpace=wrap;html=1;" parent="WIyWlLk6GJQsqaUBKTNV-1" vertex="1">
          <mxGeometry x="10" y="850" width="130" height="60" as="geometry" />
        </mxCell>
        <mxCell id="bcFZ77ztxnrligwMbe6c-8" style="edgeStyle=orthogonalEdgeStyle;rounded=0;orthogonalLoop=1;jettySize=auto;html=1;exitX=1;exitY=0.5;exitDx=0;exitDy=0;entryX=0;entryY=0.75;entryDx=0;entryDy=0;endArrow=none;endFill=0;" parent="WIyWlLk6GJQsqaUBKTNV-1" source="bcFZ77ztxnrligwMbe6c-3" target="bcFZ77ztxnrligwMbe6c-0" edge="1">
          <mxGeometry relative="1" as="geometry" />
        </mxCell>
        <mxCell id="bcFZ77ztxnrligwMbe6c-3" value="email" style="ellipse;whiteSpace=wrap;html=1;" parent="WIyWlLk6GJQsqaUBKTNV-1" vertex="1">
          <mxGeometry x="-90" y="770" width="130" height="60" as="geometry" />
        </mxCell>
        <mxCell id="bcFZ77ztxnrligwMbe6c-7" style="edgeStyle=orthogonalEdgeStyle;rounded=0;orthogonalLoop=1;jettySize=auto;html=1;exitX=1;exitY=0.5;exitDx=0;exitDy=0;entryX=0;entryY=0.25;entryDx=0;entryDy=0;endArrow=none;endFill=0;" parent="WIyWlLk6GJQsqaUBKTNV-1" source="bcFZ77ztxnrligwMbe6c-4" target="bcFZ77ztxnrligwMbe6c-0" edge="1">
          <mxGeometry relative="1" as="geometry" />
        </mxCell>
        <mxCell id="o89qxLCXQaTwuf5vdtjf-4" style="edgeStyle=orthogonalEdgeStyle;rounded=0;orthogonalLoop=1;jettySize=auto;html=1;exitX=0;exitY=0.5;exitDx=0;exitDy=0;entryX=0.25;entryY=1;entryDx=0;entryDy=0;endArrow=none;endFill=0;" edge="1" parent="WIyWlLk6GJQsqaUBKTNV-1" source="KNO62eB51g_FiUWbQfuq-7" target="KNO62eB51g_FiUWbQfuq-1">
          <mxGeometry relative="1" as="geometry">
            <Array as="points">
              <mxPoint x="1100" y="1030" />
              <mxPoint x="1100" y="790" />
            </Array>
          </mxGeometry>
        </mxCell>
        <mxCell id="KNO62eB51g_FiUWbQfuq-7" value="idForm" style="ellipse;whiteSpace=wrap;html=1;" parent="WIyWlLk6GJQsqaUBKTNV-1" vertex="1">
          <mxGeometry x="1140" y="1010" width="60" height="40" as="geometry" />
        </mxCell>
        <mxCell id="bcFZ77ztxnrligwMbe6c-4" value="username" style="ellipse;whiteSpace=wrap;html=1;" parent="WIyWlLk6GJQsqaUBKTNV-1" vertex="1">
          <mxGeometry x="-120" y="664" width="130" height="60" as="geometry" />
        </mxCell>
        <mxCell id="bcFZ77ztxnrligwMbe6c-10" value="Interview" style="rounded=0;whiteSpace=wrap;html=1;" parent="WIyWlLk6GJQsqaUBKTNV-1" vertex="1">
          <mxGeometry x="370" y="870" width="120" height="60" as="geometry" />
        </mxCell>
        <mxCell id="KNO62eB51g_FiUWbQfuq-16" value="&lt;u&gt;id&lt;/u&gt;" style="ellipse;whiteSpace=wrap;html=1;" parent="WIyWlLk6GJQsqaUBKTNV-1" vertex="1">
          <mxGeometry x="778" y="540" width="60" height="40" as="geometry" />
        </mxCell>
        <mxCell id="KNO62eB51g_FiUWbQfuq-20" style="edgeStyle=orthogonalEdgeStyle;rounded=0;orthogonalLoop=1;jettySize=auto;html=1;entryX=0.5;entryY=0;entryDx=0;entryDy=0;endArrow=none;endFill=0;" parent="WIyWlLk6GJQsqaUBKTNV-1" source="KNO62eB51g_FiUWbQfuq-17" target="KNO62eB51g_FiUWbQfuq-2" edge="1">
          <mxGeometry relative="1" as="geometry" />
        </mxCell>
        <mxCell id="bcFZ77ztxnrligwMbe6c-23" style="edgeStyle=orthogonalEdgeStyle;rounded=0;orthogonalLoop=1;jettySize=auto;html=1;exitX=0;exitY=0;exitDx=0;exitDy=0;entryX=0.5;entryY=1;entryDx=0;entryDy=0;endArrow=none;endFill=0;" parent="WIyWlLk6GJQsqaUBKTNV-1" source="bcFZ77ztxnrligwMbe6c-16" target="bcFZ77ztxnrligwMbe6c-10" edge="1">
          <mxGeometry relative="1" as="geometry">
            <Array as="points">
              <mxPoint x="380" y="1089" />
            </Array>
          </mxGeometry>
        </mxCell>
        <mxCell id="KNO62eB51g_FiUWbQfuq-17" value="Tittle" style="ellipse;whiteSpace=wrap;html=1;" parent="WIyWlLk6GJQsqaUBKTNV-1" vertex="1">
          <mxGeometry x="858" y="579" width="60" height="40" as="geometry" />
        </mxCell>
        <mxCell id="bcFZ77ztxnrligwMbe6c-16" value="&lt;u&gt;idForm&lt;/u&gt;" style="ellipse;whiteSpace=wrap;html=1;" parent="WIyWlLk6GJQsqaUBKTNV-1" vertex="1">
          <mxGeometry x="365" y="1169" width="130" height="60" as="geometry" />
        </mxCell>
        <mxCell id="KNO62eB51g_FiUWbQfuq-19" style="edgeStyle=orthogonalEdgeStyle;rounded=0;orthogonalLoop=1;jettySize=auto;html=1;entryX=0;entryY=0.5;entryDx=0;entryDy=0;endArrow=none;endFill=0;" parent="WIyWlLk6GJQsqaUBKTNV-1" source="KNO62eB51g_FiUWbQfuq-18" target="KNO62eB51g_FiUWbQfuq-2" edge="1">
          <mxGeometry relative="1" as="geometry" />
        </mxCell>
        <mxCell id="bcFZ77ztxnrligwMbe6c-20" style="edgeStyle=orthogonalEdgeStyle;rounded=0;orthogonalLoop=1;jettySize=auto;html=1;exitX=1;exitY=0.5;exitDx=0;exitDy=0;entryX=0;entryY=0.5;entryDx=0;entryDy=0;endArrow=none;endFill=0;startArrow=ERone;startFill=0;" parent="WIyWlLk6GJQsqaUBKTNV-1" source="bcFZ77ztxnrligwMbe6c-17" target="bcFZ77ztxnrligwMbe6c-19" edge="1">
          <mxGeometry relative="1" as="geometry" />
        </mxCell>
        <mxCell id="KNO62eB51g_FiUWbQfuq-18" value="Topic" style="ellipse;whiteSpace=wrap;html=1;" parent="WIyWlLk6GJQsqaUBKTNV-1" vertex="1">
          <mxGeometry x="660" y="579" width="60" height="40" as="geometry" />
        </mxCell>
        <mxCell id="bcFZ77ztxnrligwMbe6c-17" value="Role" style="rounded=0;whiteSpace=wrap;html=1;" parent="WIyWlLk6GJQsqaUBKTNV-1" vertex="1">
          <mxGeometry x="-110" y="1010" width="120" height="60" as="geometry" />
        </mxCell>
        <mxCell id="KNO62eB51g_FiUWbQfuq-21" style="edgeStyle=orthogonalEdgeStyle;rounded=0;orthogonalLoop=1;jettySize=auto;html=1;entryX=0.179;entryY=-0.023;entryDx=0;entryDy=0;entryPerimeter=0;endArrow=none;endFill=0;" parent="WIyWlLk6GJQsqaUBKTNV-1" source="KNO62eB51g_FiUWbQfuq-16" target="KNO62eB51g_FiUWbQfuq-2" edge="1">
          <mxGeometry relative="1" as="geometry" />
        </mxCell>
        <mxCell id="KNO62eB51g_FiUWbQfuq-23" style="edgeStyle=orthogonalEdgeStyle;rounded=0;orthogonalLoop=1;jettySize=auto;html=1;entryX=0;entryY=0.75;entryDx=0;entryDy=0;endArrow=none;endFill=0;" parent="WIyWlLk6GJQsqaUBKTNV-1" source="KNO62eB51g_FiUWbQfuq-22" target="KNO62eB51g_FiUWbQfuq-2" edge="1">
          <mxGeometry relative="1" as="geometry" />
        </mxCell>
        <mxCell id="o89qxLCXQaTwuf5vdtjf-0" style="edgeStyle=orthogonalEdgeStyle;rounded=0;orthogonalLoop=1;jettySize=auto;html=1;exitX=0.5;exitY=0;exitDx=0;exitDy=0;entryX=0.5;entryY=1;entryDx=0;entryDy=0;endArrow=ERoneToMany;endFill=0;" edge="1" parent="WIyWlLk6GJQsqaUBKTNV-1" source="bcFZ77ztxnrligwMbe6c-19" target="bcFZ77ztxnrligwMbe6c-0">
          <mxGeometry relative="1" as="geometry">
            <Array as="points">
              <mxPoint x="170" y="1003" />
              <mxPoint x="170" y="920" />
              <mxPoint x="220" y="920" />
            </Array>
          </mxGeometry>
        </mxCell>
        <mxCell id="bcFZ77ztxnrligwMbe6c-19" value="have" style="rhombus;whiteSpace=wrap;html=1;" parent="WIyWlLk6GJQsqaUBKTNV-1" vertex="1">
          <mxGeometry x="90" y="1002.5" width="120" height="70" as="geometry" />
        </mxCell>
        <mxCell id="KNO62eB51g_FiUWbQfuq-22" value="Description" style="ellipse;whiteSpace=wrap;html=1;" parent="WIyWlLk6GJQsqaUBKTNV-1" vertex="1">
          <mxGeometry x="530" y="610" width="100" height="54" as="geometry" />
        </mxCell>
        <mxCell id="bcFZ77ztxnrligwMbe6c-26" value="&lt;u&gt;id&lt;/u&gt;" style="ellipse;whiteSpace=wrap;html=1;" parent="WIyWlLk6GJQsqaUBKTNV-1" vertex="1">
          <mxGeometry x="1280" y="664" width="60" height="40" as="geometry" />
        </mxCell>
        <mxCell id="bcFZ77ztxnrligwMbe6c-29" style="edgeStyle=orthogonalEdgeStyle;rounded=0;orthogonalLoop=1;jettySize=auto;html=1;exitX=0;exitY=0.5;exitDx=0;exitDy=0;endArrow=none;endFill=0;" parent="WIyWlLk6GJQsqaUBKTNV-1" source="bcFZ77ztxnrligwMbe6c-28" target="KNO62eB51g_FiUWbQfuq-1" edge="1">
          <mxGeometry relative="1" as="geometry" />
        </mxCell>
        <mxCell id="bcFZ77ztxnrligwMbe6c-28" value="Announcement" style="ellipse;whiteSpace=wrap;html=1;" parent="WIyWlLk6GJQsqaUBKTNV-1" vertex="1">
          <mxGeometry x="1290" y="740" width="110" height="50" as="geometry" />
        </mxCell>
        <mxCell id="bcFZ77ztxnrligwMbe6c-38" style="edgeStyle=orthogonalEdgeStyle;rounded=0;orthogonalLoop=1;jettySize=auto;html=1;exitX=1;exitY=0.5;exitDx=0;exitDy=0;entryX=0.5;entryY=0;entryDx=0;entryDy=0;endArrow=ERoneToMany;endFill=0;" parent="WIyWlLk6GJQsqaUBKTNV-1" source="bcFZ77ztxnrligwMbe6c-37" target="KNO62eB51g_FiUWbQfuq-1" edge="1">
          <mxGeometry relative="1" as="geometry" />
        </mxCell>
        <mxCell id="bcFZ77ztxnrligwMbe6c-39" style="edgeStyle=orthogonalEdgeStyle;rounded=0;orthogonalLoop=1;jettySize=auto;html=1;exitX=0;exitY=0.5;exitDx=0;exitDy=0;entryX=1;entryY=0.5;entryDx=0;entryDy=0;endArrow=ERone;endFill=0;" parent="WIyWlLk6GJQsqaUBKTNV-1" source="bcFZ77ztxnrligwMbe6c-37" target="KNO62eB51g_FiUWbQfuq-2" edge="1">
          <mxGeometry relative="1" as="geometry" />
        </mxCell>
        <mxCell id="bcFZ77ztxnrligwMbe6c-37" value="have" style="rhombus;whiteSpace=wrap;html=1;" parent="WIyWlLk6GJQsqaUBKTNV-1" vertex="1">
          <mxGeometry x="950" y="654" width="112" height="70" as="geometry" />
        </mxCell>
        <mxCell id="bcFZ77ztxnrligwMbe6c-43" style="edgeStyle=orthogonalEdgeStyle;rounded=0;orthogonalLoop=1;jettySize=auto;html=1;exitX=0.5;exitY=1;exitDx=0;exitDy=0;entryX=0;entryY=0.75;entryDx=0;entryDy=0;endArrow=ERzeroToMany;endFill=0;" parent="WIyWlLk6GJQsqaUBKTNV-1" source="bcFZ77ztxnrligwMbe6c-42" target="bcFZ77ztxnrligwMbe6c-10" edge="1">
          <mxGeometry relative="1" as="geometry">
            <Array as="points">
              <mxPoint x="290" y="940" />
              <mxPoint x="330" y="940" />
              <mxPoint x="330" y="915" />
            </Array>
          </mxGeometry>
        </mxCell>
        <mxCell id="bcFZ77ztxnrligwMbe6c-45" style="edgeStyle=orthogonalEdgeStyle;rounded=0;orthogonalLoop=1;jettySize=auto;html=1;exitX=0.5;exitY=0;exitDx=0;exitDy=0;entryX=0.75;entryY=1;entryDx=0;entryDy=0;endArrow=ERzeroToMany;endFill=0;" parent="WIyWlLk6GJQsqaUBKTNV-1" source="bcFZ77ztxnrligwMbe6c-42" target="bcFZ77ztxnrligwMbe6c-0" edge="1">
          <mxGeometry relative="1" as="geometry" />
        </mxCell>
        <mxCell id="o89qxLCXQaTwuf5vdtjf-26" style="edgeStyle=orthogonalEdgeStyle;rounded=0;orthogonalLoop=1;jettySize=auto;html=1;exitX=0;exitY=1;exitDx=0;exitDy=0;entryX=0;entryY=0;entryDx=0;entryDy=0;endArrow=none;endFill=0;" edge="1" parent="WIyWlLk6GJQsqaUBKTNV-1" source="bcFZ77ztxnrligwMbe6c-42" target="o89qxLCXQaTwuf5vdtjf-25">
          <mxGeometry relative="1" as="geometry" />
        </mxCell>
        <mxCell id="bcFZ77ztxnrligwMbe6c-42" value="asist to" style="rhombus;whiteSpace=wrap;html=1;" parent="WIyWlLk6GJQsqaUBKTNV-1" vertex="1">
          <mxGeometry x="250" y="840" width="80" height="80" as="geometry" />
        </mxCell>
        <mxCell id="bcFZ77ztxnrligwMbe6c-52" style="edgeStyle=orthogonalEdgeStyle;rounded=0;orthogonalLoop=1;jettySize=auto;html=1;exitX=0;exitY=0.5;exitDx=0;exitDy=0;entryX=1;entryY=0;entryDx=0;entryDy=0;endArrow=ERoneToMany;endFill=0;" parent="WIyWlLk6GJQsqaUBKTNV-1" source="bcFZ77ztxnrligwMbe6c-46" target="bcFZ77ztxnrligwMbe6c-0" edge="1">
          <mxGeometry relative="1" as="geometry">
            <Array as="points">
              <mxPoint x="500" y="480" />
              <mxPoint x="500" y="540" />
              <mxPoint x="280" y="540" />
            </Array>
          </mxGeometry>
        </mxCell>
        <mxCell id="bcFZ77ztxnrligwMbe6c-53" style="edgeStyle=orthogonalEdgeStyle;rounded=0;orthogonalLoop=1;jettySize=auto;html=1;exitX=1;exitY=0.5;exitDx=0;exitDy=0;entryX=0.75;entryY=0;entryDx=0;entryDy=0;endArrow=ERoneToMany;endFill=0;" parent="WIyWlLk6GJQsqaUBKTNV-1" source="bcFZ77ztxnrligwMbe6c-46" target="KNO62eB51g_FiUWbQfuq-1" edge="1">
          <mxGeometry relative="1" as="geometry" />
        </mxCell>
        <mxCell id="bcFZ77ztxnrligwMbe6c-46" value="answer" style="rhombus;whiteSpace=wrap;html=1;" parent="WIyWlLk6GJQsqaUBKTNV-1" vertex="1">
          <mxGeometry x="588" y="440" width="80" height="80" as="geometry" />
        </mxCell>
        <mxCell id="bcFZ77ztxnrligwMbe6c-49" style="edgeStyle=orthogonalEdgeStyle;rounded=0;orthogonalLoop=1;jettySize=auto;html=1;exitX=0;exitY=0.5;exitDx=0;exitDy=0;entryX=0.5;entryY=0;entryDx=0;entryDy=0;endArrow=ERoneToMany;endFill=0;" parent="WIyWlLk6GJQsqaUBKTNV-1" source="bcFZ77ztxnrligwMbe6c-48" target="bcFZ77ztxnrligwMbe6c-10" edge="1">
          <mxGeometry relative="1" as="geometry" />
        </mxCell>
        <mxCell id="bcFZ77ztxnrligwMbe6c-50" style="edgeStyle=orthogonalEdgeStyle;rounded=0;orthogonalLoop=1;jettySize=auto;html=1;exitX=1;exitY=0.5;exitDx=0;exitDy=0;entryX=0;entryY=1;entryDx=0;entryDy=0;endArrow=ERoneToMany;endFill=0;" parent="WIyWlLk6GJQsqaUBKTNV-1" source="bcFZ77ztxnrligwMbe6c-48" target="KNO62eB51g_FiUWbQfuq-2" edge="1">
          <mxGeometry relative="1" as="geometry" />
        </mxCell>
        <mxCell id="bcFZ77ztxnrligwMbe6c-48" value="have" style="rhombus;whiteSpace=wrap;html=1;" parent="WIyWlLk6GJQsqaUBKTNV-1" vertex="1">
          <mxGeometry x="550" y="765" width="80" height="80" as="geometry" />
        </mxCell>
        <mxCell id="bcFZ77ztxnrligwMbe6c-54" value="Correct answer" style="ellipse;whiteSpace=wrap;html=1;" parent="WIyWlLk6GJQsqaUBKTNV-1" vertex="1">
          <mxGeometry x="1360" y="810" width="120" height="50" as="geometry" />
        </mxCell>
        <mxCell id="bcFZ77ztxnrligwMbe6c-58" style="edgeStyle=orthogonalEdgeStyle;rounded=0;orthogonalLoop=1;jettySize=auto;html=1;exitX=1;exitY=0.5;exitDx=0;exitDy=0;entryX=0;entryY=0.25;entryDx=0;entryDy=0;endArrow=none;endFill=0;" parent="WIyWlLk6GJQsqaUBKTNV-1" source="bcFZ77ztxnrligwMbe6c-57" target="bcFZ77ztxnrligwMbe6c-17" edge="1">
          <mxGeometry relative="1" as="geometry" />
        </mxCell>
        <mxCell id="bcFZ77ztxnrligwMbe6c-57" value="name" style="ellipse;whiteSpace=wrap;html=1;" parent="WIyWlLk6GJQsqaUBKTNV-1" vertex="1">
          <mxGeometry x="-360" y="1070" width="120" height="55" as="geometry" />
        </mxCell>
        <mxCell id="bcFZ77ztxnrligwMbe6c-60" style="edgeStyle=orthogonalEdgeStyle;rounded=0;orthogonalLoop=1;jettySize=auto;html=1;exitX=1;exitY=0.5;exitDx=0;exitDy=0;entryX=0;entryY=0;entryDx=0;entryDy=0;endArrow=none;endFill=0;" parent="WIyWlLk6GJQsqaUBKTNV-1" source="bcFZ77ztxnrligwMbe6c-59" target="bcFZ77ztxnrligwMbe6c-17" edge="1">
          <mxGeometry relative="1" as="geometry" />
        </mxCell>
        <mxCell id="bcFZ77ztxnrligwMbe6c-59" value="&lt;u&gt;id&lt;/u&gt;" style="ellipse;whiteSpace=wrap;html=1;" parent="WIyWlLk6GJQsqaUBKTNV-1" vertex="1">
          <mxGeometry x="-350" y="970" width="130" height="60" as="geometry" />
        </mxCell>
        <mxCell id="bcFZ77ztxnrligwMbe6c-62" style="edgeStyle=orthogonalEdgeStyle;rounded=0;orthogonalLoop=1;jettySize=auto;html=1;exitX=1;exitY=0.5;exitDx=0;exitDy=0;entryX=0;entryY=1;entryDx=0;entryDy=0;endArrow=none;endFill=0;" parent="WIyWlLk6GJQsqaUBKTNV-1" source="bcFZ77ztxnrligwMbe6c-61" target="bcFZ77ztxnrligwMbe6c-17" edge="1">
          <mxGeometry relative="1" as="geometry" />
        </mxCell>
        <mxCell id="bcFZ77ztxnrligwMbe6c-61" value="description" style="ellipse;whiteSpace=wrap;html=1;" parent="WIyWlLk6GJQsqaUBKTNV-1" vertex="1">
          <mxGeometry x="-360" y="1189" width="130" height="60" as="geometry" />
        </mxCell>
        <mxCell id="o89qxLCXQaTwuf5vdtjf-1" value="Options Answers" style="ellipse;whiteSpace=wrap;html=1;" vertex="1" parent="WIyWlLk6GJQsqaUBKTNV-1">
          <mxGeometry x="1230" y="910" width="120" height="50" as="geometry" />
        </mxCell>
        <mxCell id="o89qxLCXQaTwuf5vdtjf-7" style="edgeStyle=orthogonalEdgeStyle;rounded=0;orthogonalLoop=1;jettySize=auto;html=1;exitX=0.5;exitY=1;exitDx=0;exitDy=0;entryX=0.25;entryY=0;entryDx=0;entryDy=0;endArrow=none;endFill=0;" edge="1" parent="WIyWlLk6GJQsqaUBKTNV-1" source="o89qxLCXQaTwuf5vdtjf-6" target="bcFZ77ztxnrligwMbe6c-0">
          <mxGeometry relative="1" as="geometry">
            <Array as="points">
              <mxPoint x="150" y="479" />
              <mxPoint x="150" y="587" />
              <mxPoint x="190" y="587" />
            </Array>
          </mxGeometry>
        </mxCell>
        <mxCell id="o89qxLCXQaTwuf5vdtjf-6" value="idRole" style="ellipse;whiteSpace=wrap;html=1;" vertex="1" parent="WIyWlLk6GJQsqaUBKTNV-1">
          <mxGeometry x="-160" y="420" width="120" height="59" as="geometry" />
        </mxCell>
        <mxCell id="o89qxLCXQaTwuf5vdtjf-10" style="edgeStyle=orthogonalEdgeStyle;rounded=0;orthogonalLoop=1;jettySize=auto;html=1;exitX=0.5;exitY=1;exitDx=0;exitDy=0;entryX=0.5;entryY=0;entryDx=0;entryDy=0;endArrow=none;endFill=0;" edge="1" parent="WIyWlLk6GJQsqaUBKTNV-1" source="o89qxLCXQaTwuf5vdtjf-9" target="bcFZ77ztxnrligwMbe6c-0">
          <mxGeometry relative="1" as="geometry">
            <Array as="points">
              <mxPoint x="180" y="379" />
              <mxPoint x="180" y="555" />
              <mxPoint x="220" y="555" />
            </Array>
          </mxGeometry>
        </mxCell>
        <mxCell id="o89qxLCXQaTwuf5vdtjf-9" value="[ idInterview ]" style="ellipse;whiteSpace=wrap;html=1;" vertex="1" parent="WIyWlLk6GJQsqaUBKTNV-1">
          <mxGeometry x="-20" y="319" width="120" height="59" as="geometry" />
        </mxCell>
        <mxCell id="o89qxLCXQaTwuf5vdtjf-12" style="edgeStyle=orthogonalEdgeStyle;rounded=0;orthogonalLoop=1;jettySize=auto;html=1;exitX=0;exitY=0.5;exitDx=0;exitDy=0;entryX=0.75;entryY=1;entryDx=0;entryDy=0;endArrow=none;endFill=0;" edge="1" parent="WIyWlLk6GJQsqaUBKTNV-1" source="o89qxLCXQaTwuf5vdtjf-11" target="bcFZ77ztxnrligwMbe6c-10">
          <mxGeometry relative="1" as="geometry" />
        </mxCell>
        <mxCell id="o89qxLCXQaTwuf5vdtjf-11" value="&lt;u&gt;id&lt;/u&gt;" style="ellipse;whiteSpace=wrap;html=1;" vertex="1" parent="WIyWlLk6GJQsqaUBKTNV-1">
          <mxGeometry x="588" y="930" width="92" height="45" as="geometry" />
        </mxCell>
        <mxCell id="o89qxLCXQaTwuf5vdtjf-14" style="edgeStyle=orthogonalEdgeStyle;rounded=0;orthogonalLoop=1;jettySize=auto;html=1;exitX=0;exitY=0.5;exitDx=0;exitDy=0;entryX=0.5;entryY=1;entryDx=0;entryDy=0;endArrow=none;endFill=0;" edge="1" parent="WIyWlLk6GJQsqaUBKTNV-1" source="o89qxLCXQaTwuf5vdtjf-13" target="bcFZ77ztxnrligwMbe6c-10">
          <mxGeometry relative="1" as="geometry" />
        </mxCell>
        <mxCell id="o89qxLCXQaTwuf5vdtjf-13" value="Title" style="ellipse;whiteSpace=wrap;html=1;" vertex="1" parent="WIyWlLk6GJQsqaUBKTNV-1">
          <mxGeometry x="640" y="990" width="120" height="50" as="geometry" />
        </mxCell>
        <mxCell id="o89qxLCXQaTwuf5vdtjf-16" style="edgeStyle=orthogonalEdgeStyle;rounded=0;orthogonalLoop=1;jettySize=auto;html=1;exitX=0;exitY=0.5;exitDx=0;exitDy=0;entryX=0.5;entryY=1;entryDx=0;entryDy=0;endArrow=none;endFill=0;" edge="1" parent="WIyWlLk6GJQsqaUBKTNV-1" source="o89qxLCXQaTwuf5vdtjf-15" target="bcFZ77ztxnrligwMbe6c-10">
          <mxGeometry relative="1" as="geometry" />
        </mxCell>
        <mxCell id="o89qxLCXQaTwuf5vdtjf-15" value="Description" style="ellipse;whiteSpace=wrap;html=1;" vertex="1" parent="WIyWlLk6GJQsqaUBKTNV-1">
          <mxGeometry x="520" y="1072.5" width="120" height="50" as="geometry" />
        </mxCell>
        <mxCell id="o89qxLCXQaTwuf5vdtjf-18" style="edgeStyle=orthogonalEdgeStyle;rounded=0;orthogonalLoop=1;jettySize=auto;html=1;exitX=0.5;exitY=1;exitDx=0;exitDy=0;entryX=0.75;entryY=0;entryDx=0;entryDy=0;endArrow=none;endFill=0;" edge="1" parent="WIyWlLk6GJQsqaUBKTNV-1" source="o89qxLCXQaTwuf5vdtjf-17" target="bcFZ77ztxnrligwMbe6c-0">
          <mxGeometry relative="1" as="geometry" />
        </mxCell>
        <mxCell id="o89qxLCXQaTwuf5vdtjf-17" value="[ userAnswers ]" style="ellipse;whiteSpace=wrap;html=1;" vertex="1" parent="WIyWlLk6GJQsqaUBKTNV-1">
          <mxGeometry x="210" y="260" width="120" height="59" as="geometry" />
        </mxCell>
        <mxCell id="o89qxLCXQaTwuf5vdtjf-21" style="edgeStyle=orthogonalEdgeStyle;rounded=0;orthogonalLoop=1;jettySize=auto;html=1;exitX=0.5;exitY=1;exitDx=0;exitDy=0;entryX=0.25;entryY=0;entryDx=0;entryDy=0;endArrow=ERmany;endFill=0;" edge="1" parent="WIyWlLk6GJQsqaUBKTNV-1" source="o89qxLCXQaTwuf5vdtjf-20" target="bcFZ77ztxnrligwMbe6c-10">
          <mxGeometry relative="1" as="geometry" />
        </mxCell>
        <mxCell id="o89qxLCXQaTwuf5vdtjf-22" style="edgeStyle=orthogonalEdgeStyle;rounded=0;orthogonalLoop=1;jettySize=auto;html=1;exitX=0;exitY=0.5;exitDx=0;exitDy=0;entryX=1;entryY=0.5;entryDx=0;entryDy=0;endArrow=ERone;endFill=0;" edge="1" parent="WIyWlLk6GJQsqaUBKTNV-1" source="o89qxLCXQaTwuf5vdtjf-20" target="bcFZ77ztxnrligwMbe6c-0">
          <mxGeometry relative="1" as="geometry" />
        </mxCell>
        <mxCell id="o89qxLCXQaTwuf5vdtjf-20" value="create" style="rhombus;whiteSpace=wrap;html=1;" vertex="1" parent="WIyWlLk6GJQsqaUBKTNV-1">
          <mxGeometry x="360" y="720" width="80" height="80" as="geometry" />
        </mxCell>
        <mxCell id="o89qxLCXQaTwuf5vdtjf-24" style="edgeStyle=orthogonalEdgeStyle;rounded=0;orthogonalLoop=1;jettySize=auto;html=1;exitX=0.5;exitY=1;exitDx=0;exitDy=0;entryX=0.5;entryY=0;entryDx=0;entryDy=0;endArrow=none;endFill=0;" edge="1" parent="WIyWlLk6GJQsqaUBKTNV-1" source="o89qxLCXQaTwuf5vdtjf-23" target="o89qxLCXQaTwuf5vdtjf-20">
          <mxGeometry relative="1" as="geometry" />
        </mxCell>
        <mxCell id="o89qxLCXQaTwuf5vdtjf-23" value="recruiter" style="ellipse;whiteSpace=wrap;html=1;" vertex="1" parent="WIyWlLk6GJQsqaUBKTNV-1">
          <mxGeometry x="360" y="614" width="90" height="50" as="geometry" />
        </mxCell>
        <mxCell id="o89qxLCXQaTwuf5vdtjf-25" value="normal" style="ellipse;whiteSpace=wrap;html=1;" vertex="1" parent="WIyWlLk6GJQsqaUBKTNV-1">
          <mxGeometry x="250" y="1002.5" width="90" height="50" as="geometry" />
        </mxCell>
      </root>
    </mxGraphModel>
  </diagram>
</mxfile>
